# xmcd CD database file
#
# Track frame offsets:
#	182
#	26422
#	47510
#	70070
#	93437
#	111785
#	131232
#	155582
#	181012
#
# Disc length: 2732 seconds
#
# Revision: 4
# Processed by: cddbd v1.5.2PL0 Copyright (c) Steve Scherf et al.
# Submitted via: CDex 1.79
#
DISCID=6e0aaa09
DTITLE=Various Artist - Guitar Fire!
DYEAR=1993
DGENRE=Jazz
TTITLE0=Larry Carlton - Smiles And Smiles To Go
TTITLE1=Acoustic Alchemy  - Take Five
TTITLE2=Dave Grusin+Lee Ritenour - Early A.M. Attitude 
TTITLE3=Rippintons featuring Russ Freeman - Affair In San Miguel
TTITLE4=Special EFX featuring Chieli Minucci and George Jinda - Jamaica, Jamaica
TTITLE5=Gary Burton - The Chief
TTITLE6=Rene Toledo - South Beat
TTITLE7=Kevin Eubanks - Essence
TTITLE8=Larry Carlton+B. B. King - Blues For TJ
EXTD=YEAR: 1993
EXTT0=
EXTT1=
EXTT2=
EXTT3=
EXTT4=
EXTT5=
EXTT6=
EXTT7=
EXTT8=
PLAYORDER=
